<svg width="28" height="28" viewBox="0 0 18 18" fill="none" xmlns="http://www.w3.org/2000/svg" aria-hidden="true" focusable="false">
  <path d="M1.393 4.194l1.602-.266A2.341 2.341 0 014.9 2.486l.597-.066.941-.105a1.41 1.41 0 011.464 1.403v1.25c0 .17-.03.333-.086.483.097.232.24.438.415.609l6.442-4.962A.472.472 0 0114.96 1h1.568a.47.47 0 110 .938h-1.408L9.145 6.54c.045.01.09.017.136.023l3.853.48c.14.017.276.044.409.08l.559-.322c.592-.34.971-.95 1.015-1.629a.742.742 0 01.577-.678.746.746 0 01.82.353v.003a3.604 3.604 0 01-.823 4.581c.036.18.054.367.054.557v2.004l1.152 1.434a.468.468 0 01.103.293v2.812a.47.47 0 01-.47.469h-1.883a.47.47 0 01-.47-.469v-1.82a2.704 2.704 0 01-1.883-2.58v-.184l-.786.356a10.63 10.63 0 01-2.037.685v3.543A.47.47 0 019 17H5.235a.47.47 0 01-.47-.469v-4.389a2.937 2.937 0 01-1.569-2.606V7h-.47A1.724 1.724 0 011 5.281v-.625a.47.47 0 01.393-.462zm5.568-.475a.47.47 0 00-.45-.468l-.491.054v1.664a.47.47 0 00.94 0v-1.25zm8.981 2.16a2.964 2.964 0 01-1.37 1.734l-.013.007c.311.235.574.528.772.862.65-.694.884-1.695.611-2.603zM8.53 13.157c-.31.041-.625.07-.94.083v2.822h.94v-2.905zM5.41 11.409a.469.469 0 01.296.435v4.219h.941V12.78c0-.105.035-.202.094-.28V12.5l.188-.25a3.293 3.293 0 00.66-1.969.47.47 0 01.94 0c0 .692-.175 1.38-.5 1.989a9.625 9.625 0 003.09-.82l1.45-.658a.472.472 0 01.666.427v.911c0 .872.627 1.608 1.49 1.751a.47.47 0 01.393.463v1.719h.94v-2.18l-1.151-1.434a.468.468 0 01-.103-.293V9.988a2.037 2.037 0 00-1.786-2.015l-3.854-.48a2.772 2.772 0 01-.886-.267 6.219 6.219 0 01-4.14 1.375v.935c0 .83.499 1.565 1.272 1.873zM1.941 5.28c0 .431.352.782.784.782h.942c.26 0 .47.21.47.468v1.132a5.276 5.276 0 003.355-1.016 2.767 2.767 0 01-.339-.437 1.41 1.41 0 01-2.075-1.241v-1.56l-.074.008a1.394 1.394 0 00-1.195 1.04.47.47 0 01-.379.35l-1.489.246v.228z" fill="currentColor"></path>
</svg>
